<?xml version="1.0" standalone="no"?>
<!DOCTYPE svg PUBLIC "-//W3C//DTD SVG 20010904//EN"
 "http://www.w3.org/TR/2001/REC-SVG-20010904/DTD/svg10.dtd">
<svg version="1.0" xmlns="http://www.w3.org/2000/svg"
 width="500.000000pt" height="500.000000pt" viewBox="0 0 500.000000 500.000000"
 preserveAspectRatio="xMidYMid meet">
<metadata>
Created by potrace 1.14, written by Peter Selinger 2001-2017
</metadata>
<g transform="translate(0.000000,500.000000) scale(0.100000,-0.100000)"
fill="#000000" stroke="none">
<path d="M1057 4333 c-106 -186 -263 -457 -347 -603 -84 -146 -236 -409 -338
-585 -101 -176 -227 -393 -278 -482 l-94 -163 94 -162 c51 -90 177 -307 278
-483 102 -176 254 -439 338 -585 84 -146 241 -417 347 -603 l195 -337 1248 0
1248 0 195 338 c106 185 263 456 347 602 84 146 236 409 338 585 101 176 227
393 278 483 l94 162 -94 163 c-51 89 -177 306 -278 482 -102 176 -254 439
-338 585 -84 146 -241 417 -347 603 l-195 337 -1248 0 -1248 0 -195 -337z
m2651 30 c39 -65 153 -262 254 -438 445 -773 618 -1071 714 -1238 57 -98 104
-182 104 -187 0 -5 -47 -89 -104 -187 -96 -167 -269 -465 -714 -1238 -101
-176 -215 -373 -254 -437 l-69 -118 -1139 0 -1139 0 -69 118 c-39 64 -153 261
-254 437 -445 773 -618 1071 -714 1238 -57 98 -104 182 -104 187 0 5 47 89
104 187 96 167 269 465 714 1238 101 176 215 373 254 438 l69 117 1139 0 1139
0 69 -117z"/>
<path d="M1395 3754 c-11 -2 -45 -9 -75 -15 -174 -35 -293 -168 -334 -371 -23
-114 -21 -314 4 -413 36 -142 80 -193 224 -265 84 -41 94 -44 191 -48 129 -6
184 2 230 34 28 18 49 24 93 24 31 0 62 4 68 8 18 12 52 95 59 143 5 35 -1 77
-24 172 -17 69 -31 140 -32 158 -2 57 -13 83 -48 106 -19 13 -39 23 -45 23 -6
0 4 -9 22 -20 36 -22 46 -42 57 -115 4 -27 18 -99 32 -160 28 -124 26 -190 -7
-255 -16 -31 -27 -40 -55 -46 -19 -3 -45 -4 -57 -1 -16 4 -37 -3 -65 -22 -52
-35 -101 -43 -218 -36 -96 6 -112 9 -163 32 -28 13 -32 20 -27 42 5 22 -1 60
-32 224 -5 24 -1 29 31 42 19 8 56 15 80 15 83 0 148 -87 117 -158 -11 -25
-10 -26 4 -8 8 11 15 35 15 53 0 41 35 66 93 66 56 0 101 -25 121 -68 22 -46
31 -45 11 1 -8 20 -15 51 -15 68 0 40 69 241 70 203 0 -15 -8 -51 -19 -80 -32
-89 -32 -94 -1 -32 20 40 30 75 30 105 l0 45 -72 -3 c-40 -2 -81 -10 -94 -18
-17 -12 -24 -12 -30 -3 -5 8 2 19 17 28 38 26 59 50 58 69 0 13 -3 12 -11 -5
-6 -13 -19 -23 -30 -23 -10 0 -17 -5 -16 -11 2 -6 -3 -14 -9 -16 -7 -3 -13 2
-13 11 0 9 -4 16 -9 16 -9 0 -4 -69 6 -80 8 -9 113 -8 119 1 9 15 44 10 44 -6
0 -9 -9 -41 -21 -73 -12 -31 -24 -73 -28 -92 -5 -27 -11 -34 -26 -32 -79 12
-118 13 -146 3 -30 -10 -35 -9 -63 18 -57 55 -110 64 -181 29 -24 -12 -47 -19
-50 -16 -13 13 -22 235 -15 331 14 172 65 263 166 298 67 23 178 15 282 -20
51 -18 97 -29 102 -26 5 3 15 24 21 46 11 35 10 43 -8 67 -11 15 -38 32 -63
39 -45 13 -231 25 -265 17z m235 -568 c0 -11 -19 -15 -25 -6 -3 5 1 10 9 10 9
0 16 -2 16 -4z"/>
<path d="M1924 3345 c-8 -20 4 -35 27 -35 10 0 20 -1 20 -2 1 -2 5 -122 8
-268 5 -242 8 -268 26 -300 31 -53 83 -74 185 -74 136 0 214 37 254 123 19 42
21 68 26 281 l5 235 28 3 c21 3 27 9 27 28 0 24 0 24 -104 24 -58 0 -107 -4
-110 -9 -12 -19 7 -41 36 -41 l30 0 -4 -243 c-3 -212 -5 -246 -21 -270 -28
-43 -64 -61 -122 -61 -56 0 -94 18 -120 57 -26 41 -38 177 -30 353 7 163 7
164 30 164 28 0 38 12 29 34 -9 23 -212 24 -220 1z"/>
<path d="M2630 3335 c0 -20 5 -25 23 -25 23 0 24 -2 30 -122 4 -68 3 -201 0
-295 l-6 -173 -29 0 c-25 0 -29 -4 -26 -22 3 -22 7 -23 103 -23 96 0 100 1
103 23 3 18 -1 22 -23 22 -14 0 -28 6 -31 13 -2 7 -3 114 -2 237 l3 225 62
-115 c55 -103 192 -329 234 -388 14 -20 24 -23 70 -20 l54 3 6 315 c3 173 6
316 7 318 1 1 16 2 33 2 26 0 30 3 27 23 -3 21 -8 22 -105 25 l-103 3 0 -25
c0 -19 6 -25 28 -28 l27 -3 3 -242 c1 -134 -1 -243 -6 -243 -4 0 -18 21 -31
48 -12 26 -79 147 -149 270 l-127 222 -87 0 c-87 0 -88 0 -88 -25z"/>
<path d="M3390 3335 c0 -20 5 -25 25 -25 l25 0 -2 -292 -3 -293 -30 -5 c-27
-5 -31 -10 -26 -40 1 -11 168 -14 195 -4 9 3 16 15 16 25 0 14 -7 19 -25 19
-14 0 -28 6 -31 13 -2 7 -3 114 -2 237 l3 225 58 -110 c32 -60 100 -177 151
-260 l94 -150 58 0 59 0 6 315 c3 173 7 316 7 318 1 1 16 2 32 2 25 0 30 4 30
25 l0 25 -105 0 -105 0 0 -25 c0 -20 5 -25 25 -25 14 0 28 -6 31 -13 2 -7 3
-120 2 -252 l-3 -240 -23 45 c-13 25 -83 150 -155 277 l-132 232 -87 1 c-87 0
-88 0 -88 -25z"/>
<path d="M1546 3307 c-36 -48 -32 -53 7 -11 33 36 33 36 82 26 60 -13 72 -8
18 7 -62 17 -80 14 -107 -22z"/>
<path d="M1786 2879 c4 -38 2 -64 -7 -80 -11 -22 -11 -23 4 -10 19 15 24 106
6 131 -7 11 -8 -1 -3 -41z"/>
<path d="M1434 2764 c-23 -13 -61 -29 -85 -33 -35 -7 -38 -9 -14 -9 17 -1 47
5 68 12 33 12 41 12 74 -5 40 -20 76 -23 108 -8 16 8 15 8 -8 4 -31 -6 -103
10 -113 26 -3 6 2 17 12 24 31 24 2 16 -42 -11z"/>
<path d="M2123 2543 c-13 -33 4 -41 76 -35 l71 5 0 -182 0 -181 -25 0 c-16 0
-25 -6 -25 -15 0 -12 16 -15 85 -15 69 0 85 3 85 15 0 9 -9 15 -25 15 l-25 0
0 181 0 182 58 -7 c31 -3 66 -7 77 -9 23 -2 35 40 13 48 -7 2 -91 5 -187 7
-132 2 -175 0 -178 -9z"/>
<path d="M897 2543 c-12 -11 -8 -21 13 -26 19 -5 20 -14 20 -186 0 -174 -1
-181 -20 -181 -12 0 -20 -7 -20 -16 0 -15 14 -16 123 -12 166 6 217 34 217
121 0 41 -37 87 -71 87 -29 0 -30 16 -3 31 14 7 32 26 40 41 35 67 1 122 -85
138 -61 11 -204 13 -214 3z m209 -51 c15 -10 34 -47 34 -67 0 -9 -11 -27 -25
-40 -18 -19 -35 -25 -70 -25 l-45 0 0 70 0 70 48 0 c26 0 52 -4 58 -8z m7
-183 c45 -21 60 -81 29 -119 -14 -17 -29 -22 -68 -23 -27 0 -55 3 -62 7 -7 4
-12 33 -12 77 l0 69 45 0 c24 0 55 -5 68 -11z"/>
<path d="M1300 2538 c0 -9 9 -18 20 -21 19 -5 20 -14 20 -185 0 -180 0 -181
-22 -184 -13 -2 -22 -7 -20 -13 1 -6 35 -10 77 -10 42 0 76 4 78 10 1 6 -8 11
-20 13 -22 3 -23 8 -23 78 l0 74 31 0 c49 0 65 -16 95 -90 15 -39 32 -74 38
-79 12 -10 47 -15 79 -13 24 3 22 29 -3 37 -12 4 -33 33 -51 68 -17 34 -41 70
-52 80 -18 15 -19 20 -7 24 35 14 80 71 80 101 0 90 -40 113 -202 120 -101 4
-118 3 -118 -10z m209 -48 c10 -5 24 -23 31 -40 25 -60 -19 -110 -95 -110
l-35 0 0 80 0 80 41 0 c22 0 48 -4 58 -10z"/>
<path d="M1815 2527 c-74 -41 -113 -178 -86 -294 22 -90 94 -129 209 -113 57
8 92 36 122 96 21 42 25 62 25 139 -1 106 -19 149 -75 177 -51 26 -144 24
-195 -5z m157 -45 c30 -27 32 -33 36 -115 6 -107 -3 -153 -33 -183 -46 -46
-143 -24 -164 37 -14 41 -14 187 0 228 22 63 107 81 161 33z"/>
<path d="M2547 2543 c-13 -12 -7 -23 13 -23 19 0 20 -7 20 -185 0 -178 -1
-185 -20 -185 -11 0 -20 -7 -20 -15 0 -12 14 -15 69 -15 68 0 104 16 62 27
-19 5 -21 12 -21 95 l0 89 93 -3 92 -3 3 -83 c3 -77 1 -84 -18 -89 -11 -3 -20
-12 -20 -19 0 -11 17 -14 70 -14 56 0 70 3 70 15 0 8 -6 15 -14 15 -23 0 -26
24 -26 197 0 156 1 165 20 170 11 3 20 12 20 19 0 11 -17 14 -70 14 -53 0 -70
-3 -70 -14 0 -7 9 -16 20 -19 18 -5 20 -14 20 -76 l0 -71 -97 0 -98 0 3 75 c3
57 7 75 18 75 8 0 14 7 14 15 0 12 -14 15 -63 15 -35 0 -67 -3 -70 -7z"/>
<path d="M3017 2544 c-12 -12 -8 -21 13 -27 19 -5 20 -14 20 -186 0 -174 -1
-181 -20 -181 -11 0 -20 -7 -20 -15 0 -13 22 -15 158 -13 l157 3 0 25 c0 17
-5 24 -15 21 -8 -2 -54 -6 -102 -9 l-88 -5 0 87 0 86 80 0 c73 0 80 2 80 20 0
18 -7 20 -80 20 l-80 0 0 71 0 72 73 -7 c39 -3 85 -9 100 -12 27 -6 28 -5 25
22 l-3 29 -146 3 c-80 1 -148 -1 -152 -4z"/>
<path d="M3398 2544 c-14 -13 -8 -24 12 -24 19 0 20 -7 20 -185 0 -178 -1
-185 -20 -185 -11 0 -20 -7 -20 -15 0 -12 16 -15 80 -15 64 0 80 3 80 15 0 9
-9 15 -25 15 -24 0 -25 2 -25 75 l0 75 35 0 c47 0 77 -31 100 -101 20 -63 31
-77 65 -79 63 -5 81 12 40 38 -11 6 -33 39 -50 71 -16 33 -40 67 -52 75 -12 9
-20 17 -17 19 2 1 16 9 31 16 80 41 80 161 0 193 -33 13 -244 23 -254 12z
m217 -69 c56 -55 15 -135 -70 -135 l-45 0 0 80 0 80 45 0 c35 0 52 -6 70 -25z"/>
<path d="M3869 2527 c-44 -29 -63 -69 -54 -113 9 -48 30 -67 115 -99 40 -15
81 -36 91 -46 24 -24 24 -71 1 -92 -23 -21 -104 -22 -161 -2 -38 13 -42 13
-48 -2 -17 -44 61 -67 176 -52 93 13 140 84 107 163 -15 36 -54 62 -131 86
-53 17 -85 47 -85 81 0 54 70 74 155 44 30 -11 41 -11 47 -2 25 39 -8 57 -105
57 -61 0 -80 -4 -108 -23z"/>
<path d="M1653 2073 c466 -2 1228 -2 1695 0 466 1 84 2 -848 2 -932 0 -1314
-1 -847 -2z"/>
<path d="M1630 2001 c0 -6 5 -11 10 -11 15 0 13 -223 -2 -238 -9 -9 -2 -12 33
-12 24 0 39 4 32 8 -8 5 -13 48 -15 132 l-3 125 -27 3 c-16 2 -28 -1 -28 -7z"/>
<path d="M2129 1994 c-8 -10 -9 -18 -2 -25 12 -12 43 -1 43 16 0 20 -27 26
-41 9z"/>
<path d="M2842 1998 c-46 -12 -60 -52 -32 -89 25 -36 25 -37 -6 -70 -47 -49
-27 -109 35 -109 14 0 45 9 68 19 41 19 42 19 59 0 18 -20 49 -25 59 -10 3 5
-8 18 -25 28 -22 12 -29 23 -26 35 4 10 9 27 12 38 4 14 2 20 -9 20 -8 0 -17
-9 -20 -20 -7 -26 -19 -25 -46 4 l-23 25 26 34 c14 19 26 43 26 54 0 37 -43
55 -98 41z m56 -46 c4 -26 -13 -52 -34 -52 -23 0 -40 46 -24 65 19 23 54 15
58 -13z m-6 -129 c15 -15 28 -33 28 -40 0 -15 -38 -26 -71 -21 -30 4 -37 42
-13 69 22 24 23 24 56 -8z"/>
<path d="M4045 2003 c-69 -15 -95 -57 -95 -152 0 -78 25 -111 90 -118 47 -5
100 9 100 27 0 6 -19 8 -53 4 -50 -6 -55 -5 -75 21 -17 21 -22 41 -22 87 0 50
4 63 26 85 22 22 31 24 70 18 36 -5 44 -3 44 9 0 9 -8 16 -19 16 -11 0 -25 2
-33 4 -7 2 -22 2 -33 -1z"/>
<path d="M860 1991 c0 -5 6 -11 13 -14 19 -6 16 -215 -4 -228 -9 -6 2 -9 35
-9 39 0 47 3 38 12 -15 15 -17 228 -2 228 6 0 10 5 10 10 0 6 -20 10 -45 10
-25 0 -45 -4 -45 -9z"/>
<path d="M3173 1986 c14 -11 17 -30 17 -119 0 -90 -3 -108 -17 -116 -14 -8 -7
-10 32 -10 28 0 44 3 38 6 -9 3 -13 26 -13 64 l0 60 58 -3 57 -3 3 -50 c3 -38
-1 -52 -14 -62 -15 -11 -11 -13 32 -12 27 0 43 3 37 6 -16 6 -19 233 -3 233 6
0 10 5 10 10 0 6 -18 10 -40 10 -22 0 -40 -4 -40 -10 0 -5 5 -10 10 -10 6 0
10 -20 10 -45 l0 -45 -60 0 -60 0 0 45 c0 25 5 45 10 45 6 0 10 5 10 10 0 6
-21 10 -47 10 -42 -1 -46 -2 -30 -14z"/>
<path d="M3440 1994 c0 -3 6 -11 13 -19 7 -7 30 -65 51 -129 31 -97 40 -116
57 -116 23 0 45 46 79 162 12 40 26 77 31 83 17 17 9 25 -26 25 -32 0 -48 -14
-25 -22 5 -2 -2 -45 -17 -101 -15 -54 -30 -94 -34 -90 -15 16 -59 176 -54 194
6 16 1 19 -34 19 -23 0 -41 -3 -41 -6z"/>
<path d="M3772 1983 c-5 -10 -24 -64 -42 -121 -18 -56 -40 -107 -49 -112 -12
-7 -4 -9 29 -10 32 0 41 3 33 11 -8 8 -8 20 -1 40 9 26 15 29 53 29 38 0 44
-3 53 -29 7 -20 7 -32 -1 -40 -8 -8 2 -11 38 -11 46 0 47 1 32 18 -9 10 -34
67 -54 128 -32 90 -42 110 -60 112 -13 2 -25 -4 -31 -15z m38 -64 c6 -22 14
-47 17 -55 4 -10 -4 -14 -31 -14 -20 0 -36 4 -36 8 0 12 31 102 36 102 2 0 8
-18 14 -41z"/>
<path d="M1981 1957 c-6 -14 -16 -27 -23 -30 -10 -4 -11 -7 0 -18 7 -8 12 -40
12 -81 0 -61 2 -69 25 -84 16 -10 34 -14 50 -10 33 8 32 24 -2 28 -28 3 -28 4
-28 73 0 69 0 70 28 73 37 4 35 22 -3 22 -23 0 -30 5 -30 19 0 30 -19 35 -29
8z"/>
<path d="M1006 1913 c14 -31 17 -143 4 -158 -11 -13 -6 -15 29 -15 39 0 41 1
27 16 -20 19 -21 103 -3 128 8 11 23 17 38 14 23 -3 24 -7 27 -80 l3 -78 31 0
c25 0 29 3 20 12 -7 7 -12 41 -12 83 0 42 -5 76 -12 83 -15 15 -53 15 -80 1
-14 -8 -23 -8 -31 0 -6 6 -20 11 -30 11 -15 0 -17 -4 -11 -17z"/>
<path d="M1250 1912 c-35 -28 -22 -62 35 -90 32 -16 45 -28 45 -43 0 -20 -4
-21 -50 -17 -37 4 -50 2 -50 -8 0 -19 46 -28 89 -18 26 7 38 17 45 36 12 34
-3 54 -56 75 -30 12 -38 20 -36 37 3 22 23 26 66 12 20 -7 23 -5 20 11 -5 27
-77 30 -108 5z"/>
<path d="M1406 1921 c-4 -5 -2 -12 4 -16 5 -3 10 -34 10 -68 0 -95 30 -125 95
-95 21 9 28 9 34 0 4 -7 15 -10 24 -6 19 7 21 16 7 30 -5 5 -10 43 -12 84 -3
70 -4 75 -27 78 -20 3 -23 1 -16 -15 14 -34 17 -110 6 -132 -7 -13 -21 -21
-36 -21 -28 0 -34 15 -37 105 -3 53 -6 60 -25 63 -11 2 -24 -1 -27 -7z"/>
<path d="M1760 1920 c-23 -14 2 -34 31 -24 43 14 69 0 69 -38 0 -14 -8 -18
-38 -18 -66 0 -99 -47 -63 -91 18 -22 22 -23 62 -12 25 7 48 8 54 3 21 -17 37
5 25 34 -5 15 -10 52 -10 81 0 43 -4 56 -19 65 -24 13 -91 13 -111 0z m100
-114 c0 -31 -13 -46 -40 -46 -33 0 -44 12 -35 40 8 24 75 30 75 6z"/>
<path d="M2110 1921 c0 -5 5 -13 10 -16 14 -9 13 -138 -2 -153 -9 -9 -2 -12
33 -12 24 0 39 4 32 8 -7 5 -13 40 -15 92 -3 84 -3 85 -30 88 -16 2 -28 -1
-28 -7z"/>
<path d="M2255 1905 c-21 -20 -25 -34 -25 -79 0 -59 14 -81 55 -92 65 -16 120
45 111 121 -9 73 -90 102 -141 50z m85 -15 c22 -22 27 -78 10 -111 -12 -21
-50 -25 -68 -7 -18 18 -15 103 4 122 20 21 30 20 54 -4z"/>
<path d="M2440 1921 c0 -6 5 -13 10 -16 14 -9 13 -138 -2 -153 -9 -9 -2 -12
33 -12 27 0 39 4 31 9 -9 5 -12 28 -10 77 3 67 4 69 30 72 35 4 48 -25 48
-104 0 -51 1 -54 25 -54 25 0 33 14 15 25 -5 3 -10 37 -10 74 0 39 -5 72 -12
79 -15 15 -53 15 -81 1 -16 -9 -22 -9 -25 0 -4 13 -52 15 -52 2z"/>
</g>
</svg>
